<?xml version="1.0" standalone="no"?>
<svg xmlns="http://www.w3.org/2000/svg" version="1.1" width="1188" height="1188">
	<!-- Created with https://api.qrserver.com (QR Code API, see goQR.me/api for information) -->
	<title>QR Code</title>
	<desc>https://www.bornexa.be/avis</desc>
	<rect style="fill:rgb(255, 255, 255);fill-opacity:1" x="0" y="0" width="1188" height="1188" />
	<g id="elements">
		<path style="fill:rgb(0, 0, 0)" d="M 0,0 l 36,0 0,36 -36,0 z M 36,0 l 36,0 0,36 -36,0 z M 72,0 l 36,0 0,36 -36,0 z M 108,0 l 36,0 0,36 -36,0 z M 144,0 l 36,0 0,36 -36,0 z M 180,0 l 36,0 0,36 -36,0 z M 216,0 l 36,0 0,36 -36,0 z M 288,0 l 36,0 0,36 -36,0 z M 324,0 l 36,0 0,36 -36,0 z M 360,0 l 36,0 0,36 -36,0 z M 468,0 l 36,0 0,36 -36,0 z M 504,0 l 36,0 0,36 -36,0 z M 612,0 l 36,0 0,36 -36,0 z M 756,0 l 36,0 0,36 -36,0 z M 828,0 l 36,0 0,36 -36,0 z M 864,0 l 36,0 0,36 -36,0 z M 936,0 l 36,0 0,36 -36,0 z M 972,0 l 36,0 0,36 -36,0 z M 1008,0 l 36,0 0,36 -36,0 z M 1044,0 l 36,0 0,36 -36,0 z M 1080,0 l 36,0 0,36 -36,0 z M 1116,0 l 36,0 0,36 -36,0 z M 1152,0 l 36,0 0,36 -36,0 z M 0,36 l 36,0 0,36 -36,0 z M 216,36 l 36,0 0,36 -36,0 z M 288,36 l 36,0 0,36 -36,0 z M 396,36 l 36,0 0,36 -36,0 z M 576,36 l 36,0 0,36 -36,0 z M 648,36 l 36,0 0,36 -36,0 z M 684,36 l 36,0 0,36 -36,0 z M 864,36 l 36,0 0,36 -36,0 z M 936,36 l 36,0 0,36 -36,0 z M 1152,36 l 36,0 0,36 -36,0 z M 0,72 l 36,0 0,36 -36,0 z M 72,72 l 36,0 0,36 -36,0 z M 108,72 l 36,0 0,36 -36,0 z M 144,72 l 36,0 0,36 -36,0 z M 216,72 l 36,0 0,36 -36,0 z M 288,72 l 36,0 0,36 -36,0 z M 324,72 l 36,0 0,36 -36,0 z M 360,72 l 36,0 0,36 -36,0 z M 396,72 l 36,0 0,36 -36,0 z M 432,72 l 36,0 0,36 -36,0 z M 468,72 l 36,0 0,36 -36,0 z M 504,72 l 36,0 0,36 -36,0 z M 540,72 l 36,0 0,36 -36,0 z M 576,72 l 36,0 0,36 -36,0 z M 648,72 l 36,0 0,36 -36,0 z M 756,72 l 36,0 0,36 -36,0 z M 828,72 l 36,0 0,36 -36,0 z M 864,72 l 36,0 0,36 -36,0 z M 936,72 l 36,0 0,36 -36,0 z M 1008,72 l 36,0 0,36 -36,0 z M 1044,72 l 36,0 0,36 -36,0 z M 1080,72 l 36,0 0,36 -36,0 z M 1152,72 l 36,0 0,36 -36,0 z M 0,108 l 36,0 0,36 -36,0 z M 72,108 l 36,0 0,36 -36,0 z M 108,108 l 36,0 0,36 -36,0 z M 144,108 l 36,0 0,36 -36,0 z M 216,108 l 36,0 0,36 -36,0 z M 360,108 l 36,0 0,36 -36,0 z M 432,108 l 36,0 0,36 -36,0 z M 612,108 l 36,0 0,36 -36,0 z M 720,108 l 36,0 0,36 -36,0 z M 792,108 l 36,0 0,36 -36,0 z M 828,108 l 36,0 0,36 -36,0 z M 864,108 l 36,0 0,36 -36,0 z M 936,108 l 36,0 0,36 -36,0 z M 1008,108 l 36,0 0,36 -36,0 z M 1044,108 l 36,0 0,36 -36,0 z M 1080,108 l 36,0 0,36 -36,0 z M 1152,108 l 36,0 0,36 -36,0 z M 0,144 l 36,0 0,36 -36,0 z M 72,144 l 36,0 0,36 -36,0 z M 108,144 l 36,0 0,36 -36,0 z M 144,144 l 36,0 0,36 -36,0 z M 216,144 l 36,0 0,36 -36,0 z M 360,144 l 36,0 0,36 -36,0 z M 432,144 l 36,0 0,36 -36,0 z M 504,144 l 36,0 0,36 -36,0 z M 540,144 l 36,0 0,36 -36,0 z M 576,144 l 36,0 0,36 -36,0 z M 648,144 l 36,0 0,36 -36,0 z M 756,144 l 36,0 0,36 -36,0 z M 936,144 l 36,0 0,36 -36,0 z M 1008,144 l 36,0 0,36 -36,0 z M 1044,144 l 36,0 0,36 -36,0 z M 1080,144 l 36,0 0,36 -36,0 z M 1152,144 l 36,0 0,36 -36,0 z M 0,180 l 36,0 0,36 -36,0 z M 216,180 l 36,0 0,36 -36,0 z M 288,180 l 36,0 0,36 -36,0 z M 324,180 l 36,0 0,36 -36,0 z M 468,180 l 36,0 0,36 -36,0 z M 504,180 l 36,0 0,36 -36,0 z M 540,180 l 36,0 0,36 -36,0 z M 612,180 l 36,0 0,36 -36,0 z M 720,180 l 36,0 0,36 -36,0 z M 756,180 l 36,0 0,36 -36,0 z M 828,180 l 36,0 0,36 -36,0 z M 864,180 l 36,0 0,36 -36,0 z M 936,180 l 36,0 0,36 -36,0 z M 1152,180 l 36,0 0,36 -36,0 z M 0,216 l 36,0 0,36 -36,0 z M 36,216 l 36,0 0,36 -36,0 z M 72,216 l 36,0 0,36 -36,0 z M 108,216 l 36,0 0,36 -36,0 z M 144,216 l 36,0 0,36 -36,0 z M 180,216 l 36,0 0,36 -36,0 z M 216,216 l 36,0 0,36 -36,0 z M 288,216 l 36,0 0,36 -36,0 z M 360,216 l 36,0 0,36 -36,0 z M 432,216 l 36,0 0,36 -36,0 z M 504,216 l 36,0 0,36 -36,0 z M 576,216 l 36,0 0,36 -36,0 z M 648,216 l 36,0 0,36 -36,0 z M 720,216 l 36,0 0,36 -36,0 z M 792,216 l 36,0 0,36 -36,0 z M 864,216 l 36,0 0,36 -36,0 z M 936,216 l 36,0 0,36 -36,0 z M 972,216 l 36,0 0,36 -36,0 z M 1008,216 l 36,0 0,36 -36,0 z M 1044,216 l 36,0 0,36 -36,0 z M 1080,216 l 36,0 0,36 -36,0 z M 1116,216 l 36,0 0,36 -36,0 z M 1152,216 l 36,0 0,36 -36,0 z M 288,252 l 36,0 0,36 -36,0 z M 324,252 l 36,0 0,36 -36,0 z M 360,252 l 36,0 0,36 -36,0 z M 468,252 l 36,0 0,36 -36,0 z M 504,252 l 36,0 0,36 -36,0 z M 540,252 l 36,0 0,36 -36,0 z M 576,252 l 36,0 0,36 -36,0 z M 648,252 l 36,0 0,36 -36,0 z M 684,252 l 36,0 0,36 -36,0 z M 720,252 l 36,0 0,36 -36,0 z M 756,252 l 36,0 0,36 -36,0 z M 792,252 l 36,0 0,36 -36,0 z M 828,252 l 36,0 0,36 -36,0 z M 72,288 l 36,0 0,36 -36,0 z M 108,288 l 36,0 0,36 -36,0 z M 144,288 l 36,0 0,36 -36,0 z M 216,288 l 36,0 0,36 -36,0 z M 288,288 l 36,0 0,36 -36,0 z M 324,288 l 36,0 0,36 -36,0 z M 396,288 l 36,0 0,36 -36,0 z M 432,288 l 36,0 0,36 -36,0 z M 504,288 l 36,0 0,36 -36,0 z M 540,288 l 36,0 0,36 -36,0 z M 576,288 l 36,0 0,36 -36,0 z M 684,288 l 36,0 0,36 -36,0 z M 720,288 l 36,0 0,36 -36,0 z M 792,288 l 36,0 0,36 -36,0 z M 828,288 l 36,0 0,36 -36,0 z M 864,288 l 36,0 0,36 -36,0 z M 900,288 l 36,0 0,36 -36,0 z M 936,288 l 36,0 0,36 -36,0 z M 972,288 l 36,0 0,36 -36,0 z M 1080,288 l 36,0 0,36 -36,0 z M 1116,288 l 36,0 0,36 -36,0 z M 1152,288 l 36,0 0,36 -36,0 z M 36,324 l 36,0 0,36 -36,0 z M 72,324 l 36,0 0,36 -36,0 z M 180,324 l 36,0 0,36 -36,0 z M 432,324 l 36,0 0,36 -36,0 z M 540,324 l 36,0 0,36 -36,0 z M 720,324 l 36,0 0,36 -36,0 z M 756,324 l 36,0 0,36 -36,0 z M 792,324 l 36,0 0,36 -36,0 z M 828,324 l 36,0 0,36 -36,0 z M 900,324 l 36,0 0,36 -36,0 z M 936,324 l 36,0 0,36 -36,0 z M 1116,324 l 36,0 0,36 -36,0 z M 1152,324 l 36,0 0,36 -36,0 z M 0,360 l 36,0 0,36 -36,0 z M 36,360 l 36,0 0,36 -36,0 z M 72,360 l 36,0 0,36 -36,0 z M 108,360 l 36,0 0,36 -36,0 z M 144,360 l 36,0 0,36 -36,0 z M 216,360 l 36,0 0,36 -36,0 z M 576,360 l 36,0 0,36 -36,0 z M 720,360 l 36,0 0,36 -36,0 z M 756,360 l 36,0 0,36 -36,0 z M 900,360 l 36,0 0,36 -36,0 z M 936,360 l 36,0 0,36 -36,0 z M 972,360 l 36,0 0,36 -36,0 z M 1080,360 l 36,0 0,36 -36,0 z M 1116,360 l 36,0 0,36 -36,0 z M 0,396 l 36,0 0,36 -36,0 z M 72,396 l 36,0 0,36 -36,0 z M 180,396 l 36,0 0,36 -36,0 z M 324,396 l 36,0 0,36 -36,0 z M 396,396 l 36,0 0,36 -36,0 z M 468,396 l 36,0 0,36 -36,0 z M 612,396 l 36,0 0,36 -36,0 z M 684,396 l 36,0 0,36 -36,0 z M 720,396 l 36,0 0,36 -36,0 z M 756,396 l 36,0 0,36 -36,0 z M 792,396 l 36,0 0,36 -36,0 z M 828,396 l 36,0 0,36 -36,0 z M 936,396 l 36,0 0,36 -36,0 z M 1044,396 l 36,0 0,36 -36,0 z M 1080,396 l 36,0 0,36 -36,0 z M 1116,396 l 36,0 0,36 -36,0 z M 1152,396 l 36,0 0,36 -36,0 z M 0,432 l 36,0 0,36 -36,0 z M 72,432 l 36,0 0,36 -36,0 z M 108,432 l 36,0 0,36 -36,0 z M 144,432 l 36,0 0,36 -36,0 z M 216,432 l 36,0 0,36 -36,0 z M 252,432 l 36,0 0,36 -36,0 z M 288,432 l 36,0 0,36 -36,0 z M 324,432 l 36,0 0,36 -36,0 z M 360,432 l 36,0 0,36 -36,0 z M 396,432 l 36,0 0,36 -36,0 z M 432,432 l 36,0 0,36 -36,0 z M 504,432 l 36,0 0,36 -36,0 z M 540,432 l 36,0 0,36 -36,0 z M 648,432 l 36,0 0,36 -36,0 z M 756,432 l 36,0 0,36 -36,0 z M 828,432 l 36,0 0,36 -36,0 z M 900,432 l 36,0 0,36 -36,0 z M 1116,432 l 36,0 0,36 -36,0 z M 0,468 l 36,0 0,36 -36,0 z M 288,468 l 36,0 0,36 -36,0 z M 396,468 l 36,0 0,36 -36,0 z M 432,468 l 36,0 0,36 -36,0 z M 504,468 l 36,0 0,36 -36,0 z M 540,468 l 36,0 0,36 -36,0 z M 576,468 l 36,0 0,36 -36,0 z M 792,468 l 36,0 0,36 -36,0 z M 828,468 l 36,0 0,36 -36,0 z M 936,468 l 36,0 0,36 -36,0 z M 972,468 l 36,0 0,36 -36,0 z M 1080,468 l 36,0 0,36 -36,0 z M 1152,468 l 36,0 0,36 -36,0 z M 0,504 l 36,0 0,36 -36,0 z M 108,504 l 36,0 0,36 -36,0 z M 144,504 l 36,0 0,36 -36,0 z M 216,504 l 36,0 0,36 -36,0 z M 252,504 l 36,0 0,36 -36,0 z M 432,504 l 36,0 0,36 -36,0 z M 504,504 l 36,0 0,36 -36,0 z M 648,504 l 36,0 0,36 -36,0 z M 684,504 l 36,0 0,36 -36,0 z M 792,504 l 36,0 0,36 -36,0 z M 1044,504 l 36,0 0,36 -36,0 z M 1116,504 l 36,0 0,36 -36,0 z M 144,540 l 36,0 0,36 -36,0 z M 180,540 l 36,0 0,36 -36,0 z M 288,540 l 36,0 0,36 -36,0 z M 360,540 l 36,0 0,36 -36,0 z M 396,540 l 36,0 0,36 -36,0 z M 432,540 l 36,0 0,36 -36,0 z M 504,540 l 36,0 0,36 -36,0 z M 612,540 l 36,0 0,36 -36,0 z M 648,540 l 36,0 0,36 -36,0 z M 684,540 l 36,0 0,36 -36,0 z M 756,540 l 36,0 0,36 -36,0 z M 792,540 l 36,0 0,36 -36,0 z M 828,540 l 36,0 0,36 -36,0 z M 936,540 l 36,0 0,36 -36,0 z M 972,540 l 36,0 0,36 -36,0 z M 1080,540 l 36,0 0,36 -36,0 z M 1116,540 l 36,0 0,36 -36,0 z M 1152,540 l 36,0 0,36 -36,0 z M 108,576 l 36,0 0,36 -36,0 z M 144,576 l 36,0 0,36 -36,0 z M 216,576 l 36,0 0,36 -36,0 z M 324,576 l 36,0 0,36 -36,0 z M 360,576 l 36,0 0,36 -36,0 z M 432,576 l 36,0 0,36 -36,0 z M 504,576 l 36,0 0,36 -36,0 z M 612,576 l 36,0 0,36 -36,0 z M 684,576 l 36,0 0,36 -36,0 z M 720,576 l 36,0 0,36 -36,0 z M 828,576 l 36,0 0,36 -36,0 z M 900,576 l 36,0 0,36 -36,0 z M 972,576 l 36,0 0,36 -36,0 z M 1008,576 l 36,0 0,36 -36,0 z M 1080,576 l 36,0 0,36 -36,0 z M 1152,576 l 36,0 0,36 -36,0 z M 36,612 l 36,0 0,36 -36,0 z M 180,612 l 36,0 0,36 -36,0 z M 252,612 l 36,0 0,36 -36,0 z M 288,612 l 36,0 0,36 -36,0 z M 324,612 l 36,0 0,36 -36,0 z M 396,612 l 36,0 0,36 -36,0 z M 432,612 l 36,0 0,36 -36,0 z M 468,612 l 36,0 0,36 -36,0 z M 504,612 l 36,0 0,36 -36,0 z M 540,612 l 36,0 0,36 -36,0 z M 648,612 l 36,0 0,36 -36,0 z M 720,612 l 36,0 0,36 -36,0 z M 828,612 l 36,0 0,36 -36,0 z M 864,612 l 36,0 0,36 -36,0 z M 936,612 l 36,0 0,36 -36,0 z M 1116,612 l 36,0 0,36 -36,0 z M 1152,612 l 36,0 0,36 -36,0 z M 180,648 l 36,0 0,36 -36,0 z M 216,648 l 36,0 0,36 -36,0 z M 252,648 l 36,0 0,36 -36,0 z M 288,648 l 36,0 0,36 -36,0 z M 396,648 l 36,0 0,36 -36,0 z M 468,648 l 36,0 0,36 -36,0 z M 504,648 l 36,0 0,36 -36,0 z M 540,648 l 36,0 0,36 -36,0 z M 576,648 l 36,0 0,36 -36,0 z M 684,648 l 36,0 0,36 -36,0 z M 720,648 l 36,0 0,36 -36,0 z M 792,648 l 36,0 0,36 -36,0 z M 900,648 l 36,0 0,36 -36,0 z M 936,648 l 36,0 0,36 -36,0 z M 972,648 l 36,0 0,36 -36,0 z M 1008,648 l 36,0 0,36 -36,0 z M 1080,648 l 36,0 0,36 -36,0 z M 1116,648 l 36,0 0,36 -36,0 z M 0,684 l 36,0 0,36 -36,0 z M 72,684 l 36,0 0,36 -36,0 z M 180,684 l 36,0 0,36 -36,0 z M 324,684 l 36,0 0,36 -36,0 z M 360,684 l 36,0 0,36 -36,0 z M 432,684 l 36,0 0,36 -36,0 z M 468,684 l 36,0 0,36 -36,0 z M 504,684 l 36,0 0,36 -36,0 z M 540,684 l 36,0 0,36 -36,0 z M 576,684 l 36,0 0,36 -36,0 z M 612,684 l 36,0 0,36 -36,0 z M 648,684 l 36,0 0,36 -36,0 z M 756,684 l 36,0 0,36 -36,0 z M 828,684 l 36,0 0,36 -36,0 z M 864,684 l 36,0 0,36 -36,0 z M 936,684 l 36,0 0,36 -36,0 z M 1008,684 l 36,0 0,36 -36,0 z M 1044,684 l 36,0 0,36 -36,0 z M 1080,684 l 36,0 0,36 -36,0 z M 1116,684 l 36,0 0,36 -36,0 z M 0,720 l 36,0 0,36 -36,0 z M 144,720 l 36,0 0,36 -36,0 z M 216,720 l 36,0 0,36 -36,0 z M 252,720 l 36,0 0,36 -36,0 z M 288,720 l 36,0 0,36 -36,0 z M 360,720 l 36,0 0,36 -36,0 z M 540,720 l 36,0 0,36 -36,0 z M 612,720 l 36,0 0,36 -36,0 z M 648,720 l 36,0 0,36 -36,0 z M 684,720 l 36,0 0,36 -36,0 z M 792,720 l 36,0 0,36 -36,0 z M 900,720 l 36,0 0,36 -36,0 z M 936,720 l 36,0 0,36 -36,0 z M 972,720 l 36,0 0,36 -36,0 z M 1008,720 l 36,0 0,36 -36,0 z M 1044,720 l 36,0 0,36 -36,0 z M 1152,720 l 36,0 0,36 -36,0 z M 0,756 l 36,0 0,36 -36,0 z M 108,756 l 36,0 0,36 -36,0 z M 144,756 l 36,0 0,36 -36,0 z M 180,756 l 36,0 0,36 -36,0 z M 252,756 l 36,0 0,36 -36,0 z M 288,756 l 36,0 0,36 -36,0 z M 324,756 l 36,0 0,36 -36,0 z M 396,756 l 36,0 0,36 -36,0 z M 468,756 l 36,0 0,36 -36,0 z M 504,756 l 36,0 0,36 -36,0 z M 540,756 l 36,0 0,36 -36,0 z M 576,756 l 36,0 0,36 -36,0 z M 612,756 l 36,0 0,36 -36,0 z M 648,756 l 36,0 0,36 -36,0 z M 684,756 l 36,0 0,36 -36,0 z M 756,756 l 36,0 0,36 -36,0 z M 864,756 l 36,0 0,36 -36,0 z M 972,756 l 36,0 0,36 -36,0 z M 1044,756 l 36,0 0,36 -36,0 z M 1080,756 l 36,0 0,36 -36,0 z M 1116,756 l 36,0 0,36 -36,0 z M 1152,756 l 36,0 0,36 -36,0 z M 0,792 l 36,0 0,36 -36,0 z M 72,792 l 36,0 0,36 -36,0 z M 216,792 l 36,0 0,36 -36,0 z M 396,792 l 36,0 0,36 -36,0 z M 432,792 l 36,0 0,36 -36,0 z M 504,792 l 36,0 0,36 -36,0 z M 540,792 l 36,0 0,36 -36,0 z M 576,792 l 36,0 0,36 -36,0 z M 648,792 l 36,0 0,36 -36,0 z M 720,792 l 36,0 0,36 -36,0 z M 792,792 l 36,0 0,36 -36,0 z M 1008,792 l 36,0 0,36 -36,0 z M 1044,792 l 36,0 0,36 -36,0 z M 1116,792 l 36,0 0,36 -36,0 z M 0,828 l 36,0 0,36 -36,0 z M 72,828 l 36,0 0,36 -36,0 z M 108,828 l 36,0 0,36 -36,0 z M 180,828 l 36,0 0,36 -36,0 z M 324,828 l 36,0 0,36 -36,0 z M 360,828 l 36,0 0,36 -36,0 z M 396,828 l 36,0 0,36 -36,0 z M 504,828 l 36,0 0,36 -36,0 z M 612,828 l 36,0 0,36 -36,0 z M 720,828 l 36,0 0,36 -36,0 z M 756,828 l 36,0 0,36 -36,0 z M 864,828 l 36,0 0,36 -36,0 z M 1044,828 l 36,0 0,36 -36,0 z M 1080,828 l 36,0 0,36 -36,0 z M 1116,828 l 36,0 0,36 -36,0 z M 0,864 l 36,0 0,36 -36,0 z M 72,864 l 36,0 0,36 -36,0 z M 144,864 l 36,0 0,36 -36,0 z M 216,864 l 36,0 0,36 -36,0 z M 360,864 l 36,0 0,36 -36,0 z M 396,864 l 36,0 0,36 -36,0 z M 504,864 l 36,0 0,36 -36,0 z M 576,864 l 36,0 0,36 -36,0 z M 612,864 l 36,0 0,36 -36,0 z M 648,864 l 36,0 0,36 -36,0 z M 684,864 l 36,0 0,36 -36,0 z M 792,864 l 36,0 0,36 -36,0 z M 864,864 l 36,0 0,36 -36,0 z M 900,864 l 36,0 0,36 -36,0 z M 936,864 l 36,0 0,36 -36,0 z M 972,864 l 36,0 0,36 -36,0 z M 1008,864 l 36,0 0,36 -36,0 z M 1044,864 l 36,0 0,36 -36,0 z M 1116,864 l 36,0 0,36 -36,0 z M 288,900 l 36,0 0,36 -36,0 z M 324,900 l 36,0 0,36 -36,0 z M 360,900 l 36,0 0,36 -36,0 z M 432,900 l 36,0 0,36 -36,0 z M 504,900 l 36,0 0,36 -36,0 z M 540,900 l 36,0 0,36 -36,0 z M 576,900 l 36,0 0,36 -36,0 z M 720,900 l 36,0 0,36 -36,0 z M 864,900 l 36,0 0,36 -36,0 z M 1008,900 l 36,0 0,36 -36,0 z M 1080,900 l 36,0 0,36 -36,0 z M 1116,900 l 36,0 0,36 -36,0 z M 1152,900 l 36,0 0,36 -36,0 z M 0,936 l 36,0 0,36 -36,0 z M 36,936 l 36,0 0,36 -36,0 z M 72,936 l 36,0 0,36 -36,0 z M 108,936 l 36,0 0,36 -36,0 z M 144,936 l 36,0 0,36 -36,0 z M 180,936 l 36,0 0,36 -36,0 z M 216,936 l 36,0 0,36 -36,0 z M 360,936 l 36,0 0,36 -36,0 z M 396,936 l 36,0 0,36 -36,0 z M 432,936 l 36,0 0,36 -36,0 z M 540,936 l 36,0 0,36 -36,0 z M 576,936 l 36,0 0,36 -36,0 z M 612,936 l 36,0 0,36 -36,0 z M 648,936 l 36,0 0,36 -36,0 z M 684,936 l 36,0 0,36 -36,0 z M 720,936 l 36,0 0,36 -36,0 z M 792,936 l 36,0 0,36 -36,0 z M 828,936 l 36,0 0,36 -36,0 z M 864,936 l 36,0 0,36 -36,0 z M 936,936 l 36,0 0,36 -36,0 z M 1008,936 l 36,0 0,36 -36,0 z M 1044,936 l 36,0 0,36 -36,0 z M 1080,936 l 36,0 0,36 -36,0 z M 1116,936 l 36,0 0,36 -36,0 z M 0,972 l 36,0 0,36 -36,0 z M 216,972 l 36,0 0,36 -36,0 z M 360,972 l 36,0 0,36 -36,0 z M 468,972 l 36,0 0,36 -36,0 z M 576,972 l 36,0 0,36 -36,0 z M 648,972 l 36,0 0,36 -36,0 z M 684,972 l 36,0 0,36 -36,0 z M 720,972 l 36,0 0,36 -36,0 z M 864,972 l 36,0 0,36 -36,0 z M 1008,972 l 36,0 0,36 -36,0 z M 1080,972 l 36,0 0,36 -36,0 z M 1116,972 l 36,0 0,36 -36,0 z M 1152,972 l 36,0 0,36 -36,0 z M 0,1008 l 36,0 0,36 -36,0 z M 72,1008 l 36,0 0,36 -36,0 z M 108,1008 l 36,0 0,36 -36,0 z M 144,1008 l 36,0 0,36 -36,0 z M 216,1008 l 36,0 0,36 -36,0 z M 288,1008 l 36,0 0,36 -36,0 z M 396,1008 l 36,0 0,36 -36,0 z M 432,1008 l 36,0 0,36 -36,0 z M 468,1008 l 36,0 0,36 -36,0 z M 576,1008 l 36,0 0,36 -36,0 z M 648,1008 l 36,0 0,36 -36,0 z M 756,1008 l 36,0 0,36 -36,0 z M 792,1008 l 36,0 0,36 -36,0 z M 864,1008 l 36,0 0,36 -36,0 z M 900,1008 l 36,0 0,36 -36,0 z M 936,1008 l 36,0 0,36 -36,0 z M 972,1008 l 36,0 0,36 -36,0 z M 1008,1008 l 36,0 0,36 -36,0 z M 1116,1008 l 36,0 0,36 -36,0 z M 1152,1008 l 36,0 0,36 -36,0 z M 0,1044 l 36,0 0,36 -36,0 z M 72,1044 l 36,0 0,36 -36,0 z M 108,1044 l 36,0 0,36 -36,0 z M 144,1044 l 36,0 0,36 -36,0 z M 216,1044 l 36,0 0,36 -36,0 z M 288,1044 l 36,0 0,36 -36,0 z M 360,1044 l 36,0 0,36 -36,0 z M 396,1044 l 36,0 0,36 -36,0 z M 504,1044 l 36,0 0,36 -36,0 z M 540,1044 l 36,0 0,36 -36,0 z M 576,1044 l 36,0 0,36 -36,0 z M 648,1044 l 36,0 0,36 -36,0 z M 684,1044 l 36,0 0,36 -36,0 z M 720,1044 l 36,0 0,36 -36,0 z M 828,1044 l 36,0 0,36 -36,0 z M 864,1044 l 36,0 0,36 -36,0 z M 900,1044 l 36,0 0,36 -36,0 z M 1008,1044 l 36,0 0,36 -36,0 z M 1044,1044 l 36,0 0,36 -36,0 z M 1116,1044 l 36,0 0,36 -36,0 z M 0,1080 l 36,0 0,36 -36,0 z M 72,1080 l 36,0 0,36 -36,0 z M 108,1080 l 36,0 0,36 -36,0 z M 144,1080 l 36,0 0,36 -36,0 z M 216,1080 l 36,0 0,36 -36,0 z M 288,1080 l 36,0 0,36 -36,0 z M 468,1080 l 36,0 0,36 -36,0 z M 684,1080 l 36,0 0,36 -36,0 z M 792,1080 l 36,0 0,36 -36,0 z M 828,1080 l 36,0 0,36 -36,0 z M 864,1080 l 36,0 0,36 -36,0 z M 900,1080 l 36,0 0,36 -36,0 z M 936,1080 l 36,0 0,36 -36,0 z M 0,1116 l 36,0 0,36 -36,0 z M 216,1116 l 36,0 0,36 -36,0 z M 432,1116 l 36,0 0,36 -36,0 z M 612,1116 l 36,0 0,36 -36,0 z M 648,1116 l 36,0 0,36 -36,0 z M 756,1116 l 36,0 0,36 -36,0 z M 792,1116 l 36,0 0,36 -36,0 z M 972,1116 l 36,0 0,36 -36,0 z M 1044,1116 l 36,0 0,36 -36,0 z M 0,1152 l 36,0 0,36 -36,0 z M 36,1152 l 36,0 0,36 -36,0 z M 72,1152 l 36,0 0,36 -36,0 z M 108,1152 l 36,0 0,36 -36,0 z M 144,1152 l 36,0 0,36 -36,0 z M 180,1152 l 36,0 0,36 -36,0 z M 216,1152 l 36,0 0,36 -36,0 z M 324,1152 l 36,0 0,36 -36,0 z M 396,1152 l 36,0 0,36 -36,0 z M 432,1152 l 36,0 0,36 -36,0 z M 504,1152 l 36,0 0,36 -36,0 z M 576,1152 l 36,0 0,36 -36,0 z M 684,1152 l 36,0 0,36 -36,0 z M 720,1152 l 36,0 0,36 -36,0 z M 792,1152 l 36,0 0,36 -36,0 z M 828,1152 l 36,0 0,36 -36,0 z M 864,1152 l 36,0 0,36 -36,0 z M 936,1152 l 36,0 0,36 -36,0 z M 1080,1152 l 36,0 0,36 -36,0 z M 1116,1152 l 36,0 0,36 -36,0 z " />
	</g>
</svg>
